<svg width="11" height="11" viewBox="0 0 11 11" fill="none" xmlns="http://www.w3.org/2000/svg">
<g clip-path="url(#clip0_78_2482)">
<path fill-rule="evenodd" clip-rule="evenodd" d="M5.50005 0.643143C2.81776 0.643143 0.643311 2.81758 0.643311 5.49988C0.643311 8.18217 2.81775 10.3566 5.50005 10.3566C8.18237 10.3566 10.3568 8.18217 10.3568 5.49988C10.3568 2.81758 8.1823 0.643143 5.50005 0.643143ZM1.33998 5.49988C1.33998 3.20234 3.20251 1.33981 5.50005 1.33981C7.7976 1.33981 9.66012 3.20234 9.66012 5.49988C9.66012 7.79739 7.7976 9.65998 5.50005 9.65998C3.20251 9.65998 1.33998 7.79739 1.33998 5.49988ZM5.86665 3.30001C5.86665 3.0975 5.70249 2.93334 5.49999 2.93334C5.29749 2.93334 5.13332 3.0975 5.13332 3.30001V5.50001C5.13332 5.59725 5.17195 5.69052 5.24072 5.75928L6.70738 7.22595C6.85058 7.36912 7.08273 7.36912 7.22592 7.22595C7.36911 7.08276 7.36911 6.85059 7.22592 6.7074L5.86665 5.34813V3.30001Z" fill="#EC8F6D"/>
</g>
<defs>
<clipPath id="clip0_78_2482">
<rect width="11" height="11" fill="white"/>
</clipPath>
</defs>
</svg>
