<svg width="31" height="22" viewBox="0 0 31 22" fill="none" xmlns="http://www.w3.org/2000/svg">
<path d="M5.10669 9.03467C3.41919 9.03467 2.10669 7.72217 2.10669 6.03467C2.10669 4.39404 3.41919 3.03467 5.10669 3.03467C6.74731 3.03467 8.10669 4.39404 8.10669 6.03467C8.10669 7.72217 6.74731 9.03467 5.10669 9.03467ZM26.1067 9.03467C24.4192 9.03467 23.1067 7.72217 23.1067 6.03467C23.1067 4.39404 24.4192 3.03467 26.1067 3.03467C27.7473 3.03467 29.1067 4.39404 29.1067 6.03467C29.1067 7.72217 27.7473 9.03467 26.1067 9.03467ZM27.6067 10.5347C29.2473 10.5347 30.6067 11.894 30.6067 13.5347V15.0347C30.6067 15.8784 29.9036 16.5347 29.1067 16.5347H26.0129C25.6848 14.3315 24.3723 12.4565 22.4504 11.4253C23.0129 10.9097 23.7629 10.5347 24.6067 10.5347H27.6067ZM15.6067 10.5347C12.7004 10.5347 10.3567 8.19092 10.3567 5.28467C10.3567 2.42529 12.7004 0.034668 15.6067 0.034668C18.4661 0.034668 20.8567 2.42529 20.8567 5.28467C20.8567 8.19092 18.4661 10.5347 15.6067 10.5347ZM19.1692 12.0347C22.1692 12.0347 24.6067 14.4722 24.6067 17.4722V18.7847C24.6067 20.0503 23.5754 21.0347 22.3567 21.0347H8.85669C7.59106 21.0347 6.60669 20.0503 6.60669 18.7847V17.4722C6.60669 14.4722 8.99731 12.0347 11.9973 12.0347H12.3723C13.3567 12.5034 14.4348 12.7847 15.6067 12.7847C16.7317 12.7847 17.8098 12.5034 18.7942 12.0347H19.1692ZM8.71606 11.4253C6.79419 12.4565 5.48169 14.3315 5.15356 16.5347H2.10669C1.26294 16.5347 0.606689 15.8784 0.606689 15.0347V13.5347C0.606689 11.894 1.91919 10.5347 3.60669 10.5347H6.60669C7.40356 10.5347 8.15356 10.9097 8.71606 11.4253Z" fill="white"/>
</svg>
