<svg width="23" height="25" viewBox="0 0 23 25" fill="none" xmlns="http://www.w3.org/2000/svg">
<path d="M21.4504 4.47217C22.2942 4.84717 22.8567 5.64404 22.8567 6.53467C22.8567 16.9409 16.4817 22.7065 12.4504 24.394C11.8879 24.6284 11.2786 24.6284 10.7161 24.394C5.70044 22.2847 0.356689 15.8628 0.356689 6.53467C0.356689 5.64404 0.872314 4.84717 1.71606 4.47217L10.7161 0.722168C10.9973 0.628418 11.2786 0.581543 11.6067 0.581543C11.8879 0.581543 12.1692 0.628418 12.4504 0.722168L21.4504 4.47217ZM11.6067 21.4878C15.9661 19.2847 19.6692 14.1284 19.8098 7.05029L11.6067 3.62842V21.4878Z" fill="white"/>
</svg>
