<svg width="24" height="25" viewBox="0 0 24 25" fill="none" xmlns="http://www.w3.org/2000/svg">
<path d="M16.3567 8.03467H8.05981C8.76294 3.86279 10.3567 0.909668 12.2317 0.909668C14.0598 0.909668 15.7004 3.86279 16.3567 8.03467ZM7.73169 12.5347C7.73169 11.5034 7.77856 10.519 7.87231 9.53467H16.5442C16.6379 10.519 16.6848 11.5034 16.6848 12.5347C16.6848 13.6128 16.6379 14.5972 16.5442 15.5347H7.87231C7.77856 14.5972 7.73169 13.6128 7.73169 12.5347ZM22.9192 8.03467H17.8567C17.4348 5.40967 16.6848 3.01904 15.5129 1.42529C18.8879 2.40967 21.6067 4.89404 22.9192 8.03467ZM8.90356 1.42529C7.73169 3.01904 6.98169 5.40967 6.55981 8.03467H1.49731C2.80981 4.89404 5.52856 2.40967 8.90356 1.42529ZM23.4348 9.53467C23.6692 10.519 23.8098 11.5034 23.8098 12.5347C23.8098 13.6128 23.6692 14.5972 23.4348 15.5347H18.0442C18.1379 14.5503 18.2317 13.5659 18.2317 12.5347C18.2317 11.5503 18.1379 10.519 18.0442 9.53467H23.4348ZM6.23169 12.5347C6.23169 13.5659 6.27856 14.5503 6.37231 15.5347H0.981689C0.747314 14.5972 0.606689 13.6128 0.606689 12.5347C0.606689 11.5034 0.747314 10.519 0.981689 9.53467H6.37231C6.27856 10.519 6.23169 11.5503 6.23169 12.5347ZM8.05981 17.0347H16.3567C15.7004 21.2534 14.0598 24.1597 12.2317 24.1597C10.3567 24.1597 8.76294 21.2534 8.05981 17.0347ZM15.5129 23.6909C16.6848 22.0972 17.4817 19.7065 17.8567 17.0347H22.9192C21.6067 20.2222 18.8879 22.7065 15.5129 23.6909ZM1.49731 17.0347H6.55981C6.98169 19.7065 7.73169 22.0972 8.90356 23.6909C5.52856 22.7065 2.80981 20.2222 1.49731 17.0347Z" fill="white"/>
</svg>
