<svg width="81" height="65" viewBox="0 0 81 65" fill="none" xmlns="http://www.w3.org/2000/svg">
<path d="M66.7622 56.4346C67.7622 56.4346 68.7622 57.4346 68.7622 58.4346V62.4346C68.7622 63.5596 67.7622 64.4346 66.7622 64.4346H14.7622C13.6372 64.4346 12.7622 63.5596 12.7622 62.4346V58.4346C12.7622 57.4346 13.6372 56.4346 14.7622 56.4346H66.7622ZM74.7622 16.4346C78.0122 16.4346 80.7622 19.1846 80.7622 22.4346C80.7622 25.8096 78.0122 28.4346 74.7622 28.4346C74.3872 28.4346 74.0122 28.4346 73.7622 28.4346L64.7622 52.4346H16.7622L7.63716 28.4346C7.38716 28.4346 7.01216 28.4346 6.76216 28.4346C3.38716 28.4346 0.762157 25.8096 0.762157 22.4346C0.762157 19.1846 3.38716 16.4346 6.76216 16.4346C10.0122 16.4346 12.7622 19.1846 12.7622 22.4346C12.7622 23.4346 12.5122 24.1846 12.1372 24.9346L21.2622 30.4346C23.1372 31.5596 25.6372 30.9346 26.7622 28.9346L36.8872 11.0596C35.6372 10.0596 34.7622 8.30957 34.7622 6.43457C34.7622 3.18457 37.3872 0.43457 40.7622 0.43457C44.0122 0.43457 46.7622 3.18457 46.7622 6.43457C46.7622 8.30957 45.8872 10.0596 44.5122 11.0596L54.6372 28.9346C55.7622 30.9346 58.2622 31.5596 60.2622 30.4346L69.2622 24.9346C68.8872 24.1846 68.7622 23.4346 68.7622 22.4346C68.7622 19.1846 71.3872 16.4346 74.7622 16.4346Z" fill="#A3FF12"/>
</svg>
